# xmcd
#
# Track frame offsets: 
#        183
#        17083
#        31983
#        45195
#        56753
#        69425
#        85078
#        95515
#        115978
#        130933
#        144965
#        157825
#        175933
#        186788
#        202853
#        215773
#        231220
#
# Disc length: 3282 seconds
#
# Revision: 1
# Processed by: cddbd v1.5.2PL0 Copyright (c) Steve Scherf et al.
# Submitted via: ExactAudioCopy v0.95b4
#
DISCID=de0cd011
DTITLE=Various Artist - Baladas de Platino - CD1
DYEAR=1993
DGENRE=Latin
TTITLE0=Jorge Lavat - Desiderata
TTITLE1=Gigliola Cinguetti - No Tengo Edad
TTITLE2=Leo Dan . Como Te Extrano Mi Amor
TTITLE3=Enrique Guzman - Tu Cabeza En Mi Hombro
TTITLE4=Julio Iglesias - Gwendoline
TTITLE5=Luisito Rey - Frente A Una Copa De Vino
TTITLE6=Los Sonadores - Vida
TTITLE7=I Pooh - Tantos Deseos De Ella
TTITLE8=Trio San Javier - Sera Varon Sera Mujer
TTITLE9=Victor Manuel - Quiero Abrazarte Tanto
TTITLE10=Leonardo Favio - Fuiste Mia Un Verano
TTITLE11=Roberto Carlos - Un Gato En La Oscuridad
TTITLE12=Los Johnny Jets - El Ultimo Beso
TTITLE13=Sandro - Porque Yo Te Amo
TTITLE14=Oscar Golden - El Romance Del Cacique y La Cautiva
TTITLE15=Harold - Una Flor Para Mascar
TTITLE16=Piero - Mi Viejo
EXTD=
EXTT0=
EXTT1=
EXTT2=
EXTT3=
EXTT4=
EXTT5=
EXTT6=
EXTT7=
EXTT8=
EXTT9=
EXTT10=
EXTT11=
EXTT12=
EXTT13=
EXTT14=
EXTT15=
EXTT16=
PLAYORDER=
